<?xml version="1.0" standalone="no"?>
<!DOCTYPE svg PUBLIC "-//W3C//DTD SVG 20010904//EN"
 "http://www.w3.org/TR/2001/REC-SVG-20010904/DTD/svg10.dtd">
<svg version="1.0" xmlns="http://www.w3.org/2000/svg"
 width="500.000000pt" height="500.000000pt" viewBox="0 0 500.000000 500.000000"
 preserveAspectRatio="xMidYMid meet">

<g transform="translate(0.000000,500.000000) scale(0.100000,-0.100000)"
fill="currentColor" stroke="none">
<path d="M1850 2768 c0 -306 -1 -325 -20 -356 -41 -66 -131 -78 -191 -24 -34
30 -48 79 -49 160 l0 52 -212 0 -211 0 6 -122 c4 -68 14 -150 23 -183 50 -189
186 -317 381 -361 101 -22 252 -15 343 15 70 24 170 83 151 89 -8 3 -11 127
-11 468 l0 464 110 0 110 0 0 60 0 60 -215 0 -215 0 0 -322z"/>
<path d="M3620 2970 c0 -5 7 -10 15 -10 11 0 15 -12 15 -50 0 -27 4 -50 10
-50 5 0 12 23 16 50 4 32 11 50 20 50 8 0 14 5 14 10 0 6 -20 10 -45 10 -25 0
-45 -4 -45 -10z"/>
<path d="M3488 2948 c-33 -11 -33 -11 -12 -71 19 -56 40 -76 31 -29 -7 35 10
44 33 17 7 -8 19 -15 28 -15 13 0 12 3 -2 19 -11 12 -15 27 -12 39 4 12 0 26
-9 36 -19 18 -20 18 -57 4z m42 -33 c0 -8 -9 -15 -20 -15 -11 0 -20 7 -20 15
0 8 9 15 20 15 11 0 20 -7 20 -15z"/>
<path d="M3775 2923 c-23 -54 -29 -83 -17 -83 6 0 14 9 17 21 6 16 12 19 36
14 36 -8 39 10 4 22 -16 5 -22 12 -16 21 6 10 14 10 35 2 40 -15 29 10 -12 27
-31 13 -32 12 -47 -24z"/>
<path d="M2100 2505 l0 -415 155 0 155 0 0 110 c0 103 -2 116 -36 200 -20 50
-34 94 -30 97 9 9 7 13 66 -142 29 -77 58 -146 63 -153 7 -9 45 -12 149 -10
l140 3 55 140 c54 134 56 145 62 255 l6 115 123 3 122 3 0 104 0 105 -172 0
-173 0 -80 -186 c-44 -102 -83 -188 -86 -190 -4 -2 -44 82 -89 186 l-83 190
-173 0 -174 0 0 -415z"/>
<path d="M3330 2855 c-31 -37 2 -105 51 -105 24 0 59 34 59 58 0 48 -81 82
-110 47z m76 -31 c19 -28 -3 -60 -34 -50 -23 8 -39 47 -27 66 10 17 46 8 61
-16z"/>
<path d="M3891 2844 c-25 -32 -26 -43 -5 -72 22 -31 67 -29 93 4 26 33 26 49
1 74 -28 28 -64 25 -89 -6z m77 -22 c7 -46 -47 -72 -67 -34 -7 14 -6 25 5 41
21 29 58 25 62 -7z"/>
<path d="M3225 2710 c-9 -17 -13 -35 -10 -40 4 -6 -48 -10 -139 -10 l-146 0 0
-415 0 -415 155 0 155 0 0 161 0 162 104 -159 103 -159 187 -3 186 -2 -64 92
c-36 51 -101 145 -144 208 l-80 116 119 189 c66 105 124 198 130 208 9 16 -2
17 -175 17 l-184 0 -77 -132 c-43 -73 -84 -142 -91 -153 -12 -17 -14 2 -14
133 l0 152 40 -20 c32 -16 40 -18 40 -6 0 8 -9 18 -20 21 -16 5 -18 10 -9 26
15 29 2 59 -26 59 -17 0 -29 -9 -40 -30z m50 -11 c0 -7 -8 -15 -17 -17 -18 -3
-25 18 -11 32 10 10 28 1 28 -15z"/>
<path d="M4007 2714 l-47 -25 15 -29 c9 -17 20 -30 26 -30 6 0 6 6 -1 19 -14
28 -14 28 30 51 22 11 40 25 40 30 0 14 -9 12 -63 -16z"/>
<path d="M4065 2599 c-57 -13 -67 -18 -61 -28 7 -11 109 12 114 27 4 14 2 14
-53 1z"/>
<path d="M4030 2500 c-40 -40 -12 -100 47 -100 51 0 73 75 31 104 -30 21 -54
20 -78 -4z m78 -42 c2 -19 -2 -28 -17 -33 -26 -8 -61 11 -61 34 0 26 10 32 45
29 24 -2 31 -8 33 -30z"/>
<path d="M2847 2368 c-23 -63 -27 -88 -27 -175 l0 -103 30 0 30 0 0 175 c0 96
-1 175 -3 175 -1 0 -15 -33 -30 -72z"/>
</g>
</svg>
